<svg width="1292" height="208" viewBox="0 0 1292 208" fill="none" xmlns="http://www.w3.org/2000/svg">
<path d="M6.56223 40C6.56223 40 52.6158 72 86.5622 72C120.509 72 166.562 40 166.562 40C166.562 40 212.616 8 246.562 8C280.509 8 326.562 40 326.562 40C326.562 40 372.616 72 406.562 72C440.509 72 486.562 40 486.562 40C486.562 40 532.616 8 566.562 8C600.509 8 646.562 40 646.562 40C646.562 40 692.616 72 726.562 72C760.509 72 806.562 40 806.562 40C806.562 40 852.616 8 886.562 8C920.509 8 966.562 40 966.562 40C966.562 40 1012.62 72 1046.56 72C1080.51 72 1126.56 40 1126.56 40C1126.56 40 1172.62 8 1206.56 8C1240.51 8 1286.56 40 1286.56 40M5.56223 104C5.56223 104 51.6158 136 85.5622 136C119.509 136 165.562 104 165.562 104C165.562 104 211.616 72 245.562 72C279.509 72 325.562 104 325.562 104C325.562 104 371.616 136 405.562 136C439.509 136 485.562 104 485.562 104C485.562 104 531.616 72 565.562 72C599.509 72 645.562 104 645.562 104C645.562 104 691.616 136 725.562 136C759.509 136 805.562 104 805.562 104C805.562 104 851.616 72 885.562 72C919.509 72 965.562 104 965.562 104C965.562 104 1011.62 136 1045.56 136C1079.51 136 1125.56 104 1125.56 104C1125.56 104 1171.62 72 1205.56 72C1239.51 72 1285.56 104 1285.56 104M4.56223 168C4.56223 168 50.6158 200 84.5622 200C118.509 200 164.562 168 164.562 168C164.562 168 210.616 136 244.562 136C278.509 136 324.562 168 324.562 168C324.562 168 370.616 200 404.562 200C438.509 200 484.562 168 484.562 168C484.562 168 530.616 136 564.562 136C598.509 136 644.562 168 644.562 168C644.562 168 690.616 200 724.562 200C758.509 200 804.562 168 804.562 168C804.562 168 850.616 136 884.562 136C918.509 136 964.562 168 964.562 168C964.562 168 1010.62 200 1044.56 200C1078.51 200 1124.56 168 1124.56 168C1124.56 168 1170.62 136 1204.56 136C1238.51 136 1284.56 168 1284.56 168" stroke="#AD8B73" stroke-width="16"/>
</svg>
