<svg width="50" height="50" viewBox="0 0 50 50" fill="none" xmlns="http://www.w3.org/2000/svg">
<g clip-path="url(#clip0_17_8)">
<path d="M40.741 17.3596C41.3793 17.1632 41.6985 16.7458 41.6985 16.1075C41.6985 15.4691 41.3793 15.0517 40.741 14.8553L34.6274 13.0139L37.0581 18.5381L40.741 17.3596ZM31.9758 23.3258L33.7436 21.5581L28.5139 9.25735C28.3912 8.98728 28.207 8.83996 27.9615 8.81541C27.716 8.79086 27.4827 8.81541 27.2617 8.88907L23.137 10.6568C22.8423 10.8041 22.652 11.0435 22.5661 11.375C22.4802 11.7064 22.5231 12.0072 22.695 12.2773L31.9758 23.3258ZM21.0746 34.2271L22.8423 32.4593L11.7938 23.1785C11.4746 22.9575 11.1616 22.9023 10.8547 23.0128C10.5478 23.1233 10.3206 23.3258 10.1733 23.6205L8.40557 27.7452C8.2828 28.0153 8.24598 28.2608 8.29508 28.4818C8.34418 28.7028 8.50377 28.8747 8.77385 28.9974L21.0746 34.2271ZM16.8761 41.2245L18.0546 37.5416L12.5304 35.1109L14.3718 41.2245C14.5682 41.8628 14.9856 42.182 15.6239 42.182C16.2623 42.182 16.6797 41.8628 16.8761 41.2245ZM25.7886 29.513L29.0295 26.2721L17.6863 12.7192C17.5145 12.4492 17.269 12.3141 16.9498 12.3141C16.6306 12.3141 16.3605 12.4246 16.1395 12.6456L12.1621 16.623C11.9657 16.8195 11.8674 17.0773 11.8674 17.3964C11.8674 17.7156 11.9902 17.9734 12.2357 18.1698L25.7886 29.513ZM19.2331 44.9073C18.2019 45.9385 16.9559 46.4111 15.495 46.3252C14.0342 46.2393 12.7759 45.6684 11.7201 44.6127C11.4255 44.3181 11.18 43.9866 10.9836 43.6183C10.7871 43.25 10.6153 42.8695 10.468 42.4766L7.52168 33.0485C6.19586 32.4102 5.23832 31.4281 4.64906 30.1023C4.05981 28.7764 4.03525 27.4506 4.5754 26.1248L6.34317 22C6.56414 21.5335 6.82194 21.1038 7.11657 20.711C7.4112 20.3182 7.76721 19.9867 8.18459 19.7166C7.81631 18.6609 7.69969 17.5867 7.83472 16.4941C7.96976 15.4016 8.43012 14.4624 9.21579 13.6768L13.1933 9.6993C13.9789 8.91362 14.9181 8.45327 16.0106 8.31823C17.1032 8.18319 18.1774 8.29981 19.2331 8.6681C19.5278 8.27526 19.8654 7.92539 20.2459 7.61849C20.6265 7.31158 21.05 7.04765 21.5165 6.82667L25.6413 5.05891C27.0162 4.46965 28.3789 4.45738 29.7293 5.02208C31.0796 5.58678 32.0003 6.5566 32.4914 7.93153L41.9195 10.8778C42.3369 11.0006 42.7297 11.1724 43.098 11.3934C43.4663 11.6144 43.81 11.8845 44.1292 12.2036C45.234 13.3085 45.7865 14.6098 45.7865 16.1075C45.7865 17.6051 45.234 18.9064 44.1292 20.0113C43.8591 20.2813 43.5583 20.5207 43.2269 20.7294C42.8954 20.9381 42.5333 21.1161 42.1405 21.2634L38.7522 22.4419L21.8848 39.3094L20.9272 42.4766C20.7799 42.9677 20.5467 43.4096 20.2275 43.8025C19.9083 44.1953 19.5769 44.5636 19.2331 44.9073Z" fill="#1F1F1F"/>
</g>
<defs>
<clipPath id="clip0_17_8">
<rect width="50" height="50" fill="white"/>
</clipPath>
</defs>
</svg>
